<svg xmlns="http://www.w3.org/2000/svg" width="36" height="27.9" viewBox="0 0 36 27.9">
    <defs>
        <style>
            .cls-1{fill:#098cdf}
        </style>
    </defs>
    <g id="Icn_Step_04" transform="translate(-1.326 -4.325)">
        <path id="Shape" d="M31.2 27.9c-3.782 0-8.775-3.943-12.426-10.1a25.189 25.189 0 0 1-3.618-10.3 11.924 11.924 0 0 1 .1-3.112l-1.056.769c-2.892 2.436-2.234 8.626 1.578 15.075a26.279 26.279 0 0 0 5 6.221l1.512 1.38H0v-5.551h3.942v-7.891h3.78v-3.948h3.093c-.132-2.825.656-5.134 2.335-6.545l.032-.034 3.682-2.726a3.544 3.544 0 0 1 .787-.578c3.815-2.149 10.258 2.053 14.694 9.53 4.406 7.505 4.9 15.046 1.087 17.231a4.353 4.353 0 0 1-2.165.578zM18.477 1.938l-.558.417c-.954.932-1.381 2.695-1.182 4.973a23.968 23.968 0 0 0 3.415 9.631c3.848 6.511 9.533 10.586 12.459 8.95 2.923-1.636 2.132-8.533-1.712-15.018-3.256-5.517-7.89-9.3-10.98-9.3h-.016a3.088 3.088 0 0 0-1.426.347zM1.645 26.23h16.633a24 24 0 0 1-1.978-2.343H1.645zm3.945-3.946v.031h9.564c-.263-.417-.527-.834-.79-1.284-.2-.383-.393-.738-.592-1.09H5.59zm0-3.948h7.4A18 18 0 0 1 12 16H5.592zm3.81-3.948h2.1a16.055 16.055 0 0 1-.525-2.343H9.4zm19.646 7.293l-.912-1.52-1.321.754c-.221.127-.593-.088-.828-.479s-.244-.813-.024-.94l.689-.393-5.17-8.618-.687.394c-.222.127-.594-.088-.828-.482s-.246-.813-.024-.939l1.324-.758-.912-1.52c-.234-.391-.244-.813-.021-.939s.595.088.828.479l.91 1.519.461-.261-.909-1.52c-.237-.391-.244-.813-.024-.94s.595.088.83.479l.91 1.517.23-.13c.921-.528 2.462.365 3.433 1.986a5.094 5.094 0 0 1 .756 2.283 5.369 5.369 0 0 1 2.761 2.447c1.156 1.928 1.207 4.008.112 4.634l-.419.238.912 1.522c.233.391.244.813.021.94s-.595-.088-.827-.482l-.913-1.52-.462.264.913 1.52c.235.391.243.813.023.94a.288.288 0 0 1-.144.036.945.945 0 0 1-.685-.511zM27.25 13.1l-2.406 1.375 2.53 4.215 2.406-1.374c.7-.4.74-1.6 0-2.833a2.712 2.712 0 0 0-2.032-1.511 1 1 0 0 0-.498.128zm-2.831-4.3L22.2 10.073l1.868 3.114 2.218-1.266c.525-.3.57-1.178.016-2.1a1.981 1.981 0 0 0-1.5-1.115.764.764 0 0 0-.383.101z" class="cls-1" transform="translate(1.325 4.325)"/>
    </g>
</svg>
