<svg xmlns="http://www.w3.org/2000/svg" width="38" height="33" viewBox="0 0 38 33">
  <g id="Icn_Step_02" transform="translate(-249 -264.977)">
    <path id="Path" d="M411.625,294.013a2,2,0,0,0,2.026,1.963h16.82a3.531,3.531,0,0,0,.571-.046,3.494,3.494,0,0,0,.543-.134,3.442,3.442,0,0,0,.5-.214,3.378,3.378,0,0,0,.457-.287,3.244,3.244,0,0,0,.4-.353,3.079,3.079,0,0,0,.331-.411,2.927,2.927,0,0,0,.254-.461,2.828,2.828,0,0,0,.167-.5q.031-.135.049-.27t.025-.269q.007-.134,0-.267t-.021-.264q-.016-.131-.044-.26t-.067-.255q-.039-.126-.089-.248t-.111-.24a3.215,3.215,0,0,0,.718-.48,3.14,3.14,0,0,0,.555-.645,3.059,3.059,0,0,0,.206-.373,3,3,0,0,0,.28-1.265q0-.092-.005-.182t-.016-.18q-.011-.09-.027-.178t-.037-.175q-.021-.087-.047-.172t-.057-.168q-.031-.083-.068-.165t-.077-.161a3.217,3.217,0,0,0,.718-.48,3.147,3.147,0,0,0,.3-.3,3.1,3.1,0,0,0,.255-.34,3.059,3.059,0,0,0,.206-.372,3.023,3.023,0,0,0,.152-.4,2.994,2.994,0,0,0,.127-.864,3.035,3.035,0,0,0-.016-.308,2.989,2.989,0,0,0-.228-.876q-.059-.138-.132-.27t-.159-.256q-.086-.124-.184-.241t-.208-.223a3.471,3.471,0,0,0,.234-.275,3.426,3.426,0,0,0,.2-.3,3.371,3.371,0,0,0,.3-.642,3.34,3.34,0,0,0,.161-.694,3.36,3.36,0,0,0,.024-.361,3.414,3.414,0,0,0-.015-.366,3.126,3.126,0,0,0-.128-.638,3.237,3.237,0,0,0-.252-.591,3.415,3.415,0,0,0-.362-.532,3.623,3.623,0,0,0-.458-.461,3.789,3.789,0,0,0-.54-.379,3.885,3.885,0,0,0-.608-.285,3.954,3.954,0,0,0-1.365-.242h-8.8a14.364,14.364,0,0,0,1.126-5.263h0v-1.228a4.252,4.252,0,0,0-4.317-4.183h-1.656a1.127,1.127,0,0,0-1.144,1.109l0,4.583-1.79,4.983c-1.375,3.812-3.5,3.739-3.691,3.739" transform="translate(-150.625 0.001)" fill="none" stroke="#098cdf" stroke-linecap="square" stroke-linejoin="round" stroke-width="2"/>
    <path id="Path-2" data-name="Path" d="M253.5,468.75a3.544,3.544,0,0,0-.7.07,3.513,3.513,0,0,0-2.2,1.457,3.443,3.443,0,0,0-.323.588,3.409,3.409,0,0,0-.276,1.346v11.077a3.417,3.417,0,0,0,.6,1.934,3.511,3.511,0,0,0,2.2,1.457,3.542,3.542,0,0,0,.7.07h5.7a1.789,1.789,0,0,0,1.8-1.778V468.75Z" transform="translate(0 -189.774)" fill="none" stroke="#098cdf" stroke-linejoin="round" stroke-width="2"/>
  </g>
</svg>
