<svg xmlns="http://www.w3.org/2000/svg" width="250" height="288.803" viewBox="0 0 250 288.803">
  <g id="Question_Logo" transform="translate(-178.35 -237.18)">
    <path id="Shape" d="M428.35,362.185a124.886,124.886,0,0,1-125,125A126.027,126.027,0,0,1,284,485.691l-38.907,40.292,1.074-52.62A125.012,125.012,0,1,1,428.35,362.185Z" transform="translate(0 0)" fill="#b10c10"/>
    <path id="Shadow" d="M339.518,325.95l-.012,0a41.564,41.564,0,0,1,8.741,13.1,40.864,40.864,0,0,1,3.237,16.177,36.8,36.8,0,0,1-2.252,12.66,41.086,41.086,0,0,1-6.259,11.324,44.523,44.523,0,0,1-9.354,8.933,36.039,36.039,0,0,1-11.676,5.485v8.3H296.2v0L306.5,412.3h-6.344a3.927,3.927,0,0,0-3.109,2.016c-.687,1.344-.466,1.891-.51,4.531-.038,2.335-.006,10.564-.006,12.5s-.266,3.484,1.313,4.891L351.12,485.4a125.342,125.342,0,0,0,75.4-72.451Z" transform="translate(-6.776 -5.104)" opacity="0.2"/>
    <path id="Shadow-2" data-name="Shadow" d="M308.453,371.22q1.124-.281,2.251-.633t2.251-.632a15.621,15.621,0,0,0,8.088-5.346,14.163,14.163,0,0,0,3.166-9.143,14.569,14.569,0,0,0-1.266-6.049,16.444,16.444,0,0,0-3.376-4.924,16.223,16.223,0,0,0-4.994-3.376,15.689,15.689,0,0,0-16.88,2.955,15.462,15.462,0,0,0-4.852,10.55H267.1L295.581,383.1a18.223,18.223,0,0,1,2.955-5.2A19.282,19.282,0,0,1,308.453,371.22Z" transform="translate(-5.103 -5.903)" opacity="0.2"/>
    <path id="Ledger_Symbol" d="M20.944,0H9.519V15.418H24.937V3.993A3.984,3.984,0,0,0,20.944,0ZM5.958,0H3.993A3.984,3.984,0,0,0,0,3.993V5.958H5.958ZM0,9.519H5.958v5.958H0ZM19.042,24.937h1.965A3.984,3.984,0,0,0,25,20.944v-1.9H19.042ZM9.519,19.042h5.958V25H9.519ZM0,19.042v1.965A3.984,3.984,0,0,0,3.993,25H5.958V19.042Z" transform="translate(289.85 407.176)" fill="#fff"/>
    <path id="Icon" d="M320.268,392.878v8.3H294.527v-13.5a17.6,17.6,0,0,1,4.008-11.324,19.282,19.282,0,0,1,9.917-6.681q1.124-.281,2.251-.633t2.251-.632a15.621,15.621,0,0,0,8.088-5.346,14.163,14.163,0,0,0,3.166-9.143,14.57,14.57,0,0,0-1.266-6.049,16.444,16.444,0,0,0-3.376-4.924,16.224,16.224,0,0,0-4.994-3.376,15.69,15.69,0,0,0-16.88,2.955,15.463,15.463,0,0,0-4.852,10.55H267.1a38.706,38.706,0,0,1,3.517-15.756,42.684,42.684,0,0,1,9-12.8,41.344,41.344,0,0,1,13.012-8.582,40.564,40.564,0,0,1,15.826-3.094,39.63,39.63,0,0,1,16.106,3.305,42.741,42.741,0,0,1,13.153,8.932,41.54,41.54,0,0,1,8.861,13.223,40.864,40.864,0,0,1,3.237,16.177,36.8,36.8,0,0,1-2.252,12.66,41.086,41.086,0,0,1-6.259,11.324,44.524,44.524,0,0,1-9.354,8.933A36.041,36.041,0,0,1,320.268,392.878Z" transform="translate(-5.102 -4.35)" fill="#fff"/>
  </g>
</svg>
