<svg xmlns="http://www.w3.org/2000/svg" width="280.969" height="239.928" viewBox="0 0 280.969 239.928">
    <defs>
        <style>
            .cls-1{fill:url(#linear-gradient)}
        </style>
        <linearGradient id="linear-gradient" x1=".5" x2=".5" y2="1" gradientUnits="objectBoundingBox">
            <stop offset="0" stop-color="#098cdf"/>
            <stop offset="1" stop-color="#004378"/>
        </linearGradient>
    </defs>
    <path id="_02_Shape" d="M919.086 455.173a119.963 119.963 0 0 0-168.978-.671 1.311 1.311 0 0 0 1.84 1.869 117.339 117.339 0 1 1-8.236 158.268 1.306 1.306 0 0 0-1.73-.254h-66.106v-11.6l45.3-46.2c11.078-11.211 18.567-20.382 22.259-27.257 3.734-6.954 5.627-13.361 5.627-19.042A20.289 20.289 0 0 0 743 495.243c-4.018-3.947-9.242-5.948-15.526-5.948a20.722 20.722 0 0 0-16.036 7.163c-3.984 4.449-6.234 10.444-6.7 17.835h-24.772c.937-14.872 5.826-26.761 14.544-35.352 8.972-8.843 20.67-13.326 34.77-13.326a47.321 47.321 0 0 1 23.11 5.509 41.409 41.409 0 0 1 15.962 15.871 41.925 41.925 0 0 1 6 21.08c0 8.522-2.472 17.853-7.348 27.73-4.906 9.939-14.037 21.887-27.145 35.519l-16.574 17.468a1.312 1.312 0 0 0 .952 2.214h43.714a1.311 1.311 0 1 0 0-2.622h-40.665l14.467-15.249c13.289-13.819 22.576-25.988 27.6-36.169 5.055-10.242 7.619-19.962 7.619-28.891a44.508 44.508 0 0 0-6.35-22.391 44 44 0 0 0-16.967-16.857 49.909 49.909 0 0 0-24.376-5.835c-14.813 0-27.131 4.738-36.611 14.081s-14.65 22.276-15.4 38.471a1.311 1.311 0 0 0 1.31 1.372h27.408a1.311 1.311 0 0 0 1.31-1.266c.254-7.344 2.3-13.213 6.091-17.442a17.971 17.971 0 0 1 14.083-6.29c5.651 0 10.128 1.7 13.688 5.2a17.527 17.527 0 0 1 5.28 13.17c0 5.243-1.789 11.232-5.316 17.8-3.573 6.654-10.912 15.622-21.817 26.658l-45.679 46.583a1.309 1.309 0 0 0-.375.918V615.7a1.311 1.311 0 0 0 1.311 1.311h67.718a119.961 119.961 0 1 0 176.8-161.835z" class="cls-1" data-name="02_Shape" transform="translate(-673.254 -420.036)"/>
</svg>
