<svg xmlns="http://www.w3.org/2000/svg" width="272.612" height="239.928" viewBox="0 0 272.612 239.928">
    <defs>
        <style>
            .cls-1{fill:url(#linear-gradient)}
        </style>
        <linearGradient id="linear-gradient" x1=".5" x2=".5" y2="1" gradientUnits="objectBoundingBox">
            <stop offset="0" stop-color="#098cdf"/>
            <stop offset="1" stop-color="#004378"/>
        </linearGradient>
    </defs>
    <path id="_01_Shape" d="M624.475 455.173a119.962 119.962 0 0 0-170.7 1.062 1.311 1.311 0 0 0 1.877 1.831 117.342 117.342 0 1 1-7.7 155.149V465.639a1.311 1.311 0 0 0-1.311-1.311h-42.066a1.309 1.309 0 0 0-1.116.624l-16.264 26.4a1.311 1.311 0 0 0 1.116 2h29.108v119.966a1.311 1.311 0 1 0 2.623 0V492.043a1.311 1.311 0 0 0-1.312-1.311h-28.071l14.649-23.781h40.021v146.367a1.368 1.368 0 0 0 .033.288 1.309 1.309 0 0 0 .277.924 119.966 119.966 0 1 0 178.836-159.357z" class="cls-1" data-name="01_Shape" transform="translate(-387 -420.036)"/>
</svg>
