<svg xmlns="http://www.w3.org/2000/svg" width="276.794" height="239.925" viewBox="0 0 276.794 239.925">
    <defs>
        <style>
            .cls-1{fill:url(#linear-gradient)}
        </style>
        <linearGradient id="linear-gradient" x1=".5" x2=".5" y2="1" gradientUnits="objectBoundingBox">
            <stop offset="0" stop-color="#098cdf"/>
            <stop offset="1" stop-color="#004378"/>
        </linearGradient>
    </defs>
    <path id="_04_Shape" d="M12925.176 1843.387a4.126 4.126 0 0 1-.722-2.934v-27.239h-63.143a1.311 1.311 0 0 1-1.312-1.312v-26a1.313 1.313 0 0 1 .224-.729l63.943-95.073a1.309 1.309 0 0 1 1.088-.58h28.018a1.311 1.311 0 0 1 1.312 1.312v93.761h7.926a1.311 1.311 0 0 1 0 2.621h-9.237a1.312 1.312 0 0 1-1.312-1.312v-93.76h-26.006l-63.33 94.163v24.292h63.143a1.31 1.31 0 0 1 1.309 1.309v29.672a117.336 117.336 0 1 0 7.415-159.174 1.312 1.312 0 0 1-1.844-1.866 119.969 119.969 0 1 1-7.471 162.854zm-33.144-56.176a1.311 1.311 0 0 1-1.085-2.047l33.734-49.5a1.31 1.31 0 0 1 2.394.739v49.497a1.311 1.311 0 0 1-1.309 1.312zm2.479-2.621h29.942v-43.931z" class="cls-1" data-name="04_Shape" transform="translate(-12860 -1646.037)"/>
</svg>
