<svg xmlns="http://www.w3.org/2000/svg" width="266.074" height="239.928" viewBox="0 0 266.074 239.928">
    <defs>
        <style>
            .cls-1{fill:url(#linear-gradient)}
        </style>
        <linearGradient id="linear-gradient" x1=".5" x2=".5" y2="1" gradientUnits="objectBoundingBox">
            <stop offset="0" stop-color="#098cdf"/>
            <stop offset="1" stop-color="#004378"/>
        </linearGradient>
    </defs>
    <path id="_03_Shape" d="M1061.32 519.353a1.3 1.3 0 0 1-.4-1.763 30.754 30.754 0 0 0 4.48-16.19c0-10.148-4-19.047-11.885-26.452-7.911-7.425-17.86-11.19-29.571-11.19-13.156 0-24.222 4.528-32.892 13.457-5.9 6.086-9.659 14.181-11.178 24.078h24.554a19.666 19.666 0 0 1 6.886-9.227 19.244 19.244 0 0 1 11.726-3.924c4.874 0 8.892 1.453 11.942 4.321a14.453 14.453 0 0 1 4.629 10.944 16.775 16.775 0 0 1-2.983 9.465 20.1 20.1 0 0 1-8.257 6.93c-3.286 1.56-7.992 2.6-14.36 3.182v21.605c10.6.309 18.909 2.791 24.7 7.386 6.125 4.857 9.231 10.911 9.231 17.993a22.141 22.141 0 0 1-6.871 16.4 23.761 23.761 0 0 1-17.23 6.7c-6.6 0-12.145-1.988-16.49-5.91-4.121-3.718-6.88-9.326-8.21-16.678h-25.3c1.068 13.868 5.9 25.008 14.363 33.131 8.74 8.384 20.223 12.636 34.13 12.636 1.623 0 3.235-.056 4.794-.165H1027.216a1.279 1.279 0 0 1 .232.008.257.257 0 0 1 .039.007 1.26 1.26 0 0 1 .21.049l.039.015a1.278 1.278 0 0 1 .193.087l.037.024a1.269 1.269 0 0 1 .166.118c.017.014.031.03.047.044.034.032.07.061.1.1a117.342 117.342 0 1 0 8.231-161.684 1.364 1.364 0 0 1-1.811.1 1.312 1.312 0 0 1-.051-1.948 119.968 119.968 0 1 1-7.923 165.734c-1.438.088-2.908.14-4.393.14-14.607 0-26.7-4.5-35.945-13.366s-14.375-21.063-15.259-36.259a1.31 1.31 0 0 1 1.309-1.387h27.809a1.319 1.319 0 0 1 1.3 1.121c1.152 7.284 3.7 12.745 7.562 16.234 3.849 3.473 8.806 5.233 14.733 5.233a21.229 21.229 0 0 0 15.4-5.951 19.359 19.359 0 0 0 6.08-14.523c0-6.329-2.694-11.542-8.238-15.939-5.559-4.409-13.765-6.712-24.388-6.844a1.321 1.321 0 0 1-1.307-1.311v-24.105a1.309 1.309 0 0 1 1.2-1.307c6.572-.52 11.5-1.543 14.657-3.04a17.516 17.516 0 0 0 7.2-6.022 14.2 14.2 0 0 0 2.538-8 11.778 11.778 0 0 0-3.8-9.034c-2.583-2.428-5.9-3.609-10.145-3.609a16.681 16.681 0 0 0-10.16 3.4 17.132 17.132 0 0 0-6.26 8.833 1.306 1.306 0 0 1-1.249.914h-27.001a1.312 1.312 0 0 1-1.3-1.479c1.436-11.146 5.509-20.246 12.1-27.049 9.184-9.457 20.883-14.252 34.775-14.252 12.4 0 22.953 4 31.366 11.9 8.436 7.92 12.713 17.463 12.713 28.364a33.324 33.324 0 0 1-4.854 17.531 1.317 1.317 0 0 1-1.852.423z" class="cls-1" data-name="03_Shape" transform="translate(-971.134 -420.036)"/>
</svg>
