<svg xmlns="http://www.w3.org/2000/svg" width="150" height="27.031" viewBox="0 0 150 27.031">
  <g id="Icrypex_Logo" transform="translate(-142 -68)">
    <rect id="Box" width="150" height="27" transform="translate(142 68)" fill="#112135" opacity="0"/>
    <g id="Logo" transform="translate(143.489 69.118)">
      <path id="X" d="M696.824-415.3a4.043,4.043,0,0,0-3.3,1.7l-4.326,6.04,2.48,3.461,8.01-11.2Z" transform="translate(-553.747 415.428)" fill="#357ce1"/>
      <path id="Type" d="M9.809,20.334A12.957,12.957,0,0,1,30.562,4.842l.015.021a.311.311,0,0,1-.088.431L27.648,7.19a.325.325,0,0,1-.415-.048,8.841,8.841,0,0,0-6.926-3.109A8.933,8.933,0,0,0,20.452,21.9v0a8.914,8.914,0,0,0,6.782-3.126.326.326,0,0,1,.415-.048l2.841,1.895.022.015a.311.311,0,0,1,.051.437,12.957,12.957,0,0,1-20.753-.736Zm131.568,5.332a.626.626,0,0,1-.509-.262l-6.223-8.7a.311.311,0,0,0-.505,0l-6.222,8.7a.627.627,0,0,1-.51.262h-4.024a.312.312,0,0,1-.18-.06.317.317,0,0,1-.073-.442L131.7,13.206a.532.532,0,0,0,0-.62L123.131.628a.317.317,0,0,1,.253-.5H127.4a.626.626,0,0,1,.509.262l17.748,24.776a.318.318,0,0,1-.254.5ZM80.49,25.66a.311.311,0,0,1-.311-.311l-.01-.009V.448A.319.319,0,0,1,80.48.125h9.793a8.457,8.457,0,0,1,8.518,8.013c.2,5.287-4.608,8.5-8.321,8.64-1.081.041-3.915.04-5.985.03a.28.28,0,0,0-.281.282v8.259a.311.311,0,0,1-.311.311ZM84.2,4.446v8.012a.282.282,0,0,0,.282.282H90.47a4.289,4.289,0,0,0,4.262-4.768,4.366,4.366,0,0,0-4.383-3.808H84.487A.282.282,0,0,0,84.2,4.446ZM48.52,25.66a.519.519,0,0,1-.449-.259l-4.958-8.587-2.134-3.7a.25.25,0,0,1,.217-.376h3.24a4.288,4.288,0,0,0,4.231-4.995,4.354,4.354,0,0,0-4.339-3.581H38.481a.311.311,0,0,0-.311.311l0,20.874a.311.311,0,0,1-.311.311h-3.4a.311.311,0,0,1-.311-.311l-.01-.009V.448a.319.319,0,0,1,.311-.323h9.812a8.444,8.444,0,0,1,8.486,7.751,8.289,8.289,0,0,1-5.136,8.114.249.249,0,0,0-.116.352l5.2,9.007a.207.207,0,0,1-.179.311Zm15.005-.006a.313.313,0,0,1-.313-.313V17.508a.942.942,0,0,0-.126-.47L53.593.595a.313.313,0,0,1,.271-.47h3.754a.626.626,0,0,1,.542.313l6.827,11.824a.282.282,0,0,0,.488,0L72.3.438a.626.626,0,0,1,.542-.313H76.6a.313.313,0,0,1,.271.47l-9.5,16.451a.939.939,0,0,0-.126.47v7.826a.313.313,0,0,1-.313.313Zm-63.212,0A.311.311,0,0,1,0,25.342H0V.125A4.036,4.036,0,0,1,4.027,4.158V25.342a.311.311,0,0,1-.311.311Zm102.087,0a.31.31,0,0,1-.311-.311V.448A.319.319,0,0,1,102.4.125h16.884A.319.319,0,0,1,119.6.45v3.4a.311.311,0,0,1-.311.311H106.427a.311.311,0,0,0-.311.311v6.08a.33.33,0,0,0,.311.325H117.2a.311.311,0,0,1,.311.311l.01,3.409a.311.311,0,0,1-.311.312H106.427a.311.311,0,0,0-.311.311V21.3a.3.3,0,0,0,.3.311H119.28a.318.318,0,0,1,.311.325l.005,3.4a.31.31,0,0,1-.311.311Z" transform="translate(0 0)" fill="#fff"/>
    </g>
  </g>
</svg>
