<svg xmlns="http://www.w3.org/2000/svg" width="466.69" height="466.69" viewBox="0 0 466.69 466.69">
  <path id="Ledger_Symbol" d="M276.462,0H125.647V203.52h203.52V52.705A52.585,52.585,0,0,0,276.462,0ZM78.642,0H52.705A52.585,52.585,0,0,0,0,52.705V78.642H78.642ZM0,125.647H78.642v78.642H0Zm251.358,203.52h25.936A52.585,52.585,0,0,0,330,276.462v-25.1H251.358ZM125.647,251.358h78.642V330H125.647ZM0,251.358v25.936A52.585,52.585,0,0,0,52.705,330H78.642V251.358Z" transform="translate(233.345) rotate(45)" fill="#717989" opacity="0.1"/>
</svg>
