<svg xmlns="http://www.w3.org/2000/svg" width="180" height="44.215" viewBox="0 0 180 44.215">
  <path id="Ledger_Logo" d="M31.092,0H14.131V22.889H37.02V5.927A5.914,5.914,0,0,0,31.092,0ZM8.844,0H5.927A5.914,5.914,0,0,0,0,5.927V8.844H8.844ZM0,14.131H8.844v8.844H0ZM28.269,37.02h2.917a5.914,5.914,0,0,0,5.927-5.927V28.269H28.269ZM14.131,28.269h8.844v8.844H14.131ZM0,28.269v2.917a5.914,5.914,0,0,0,5.927,5.927H8.844V28.269ZM59.635,2.37H56.171V34.737H74.5v-3.1H59.635ZM85.621,10.94c-6.749,0-11.488,5.013-11.488,12.215v.828A11.826,11.826,0,0,0,85.895,35.378h.454a13.3,13.3,0,0,0,8.571-3.191l.094-.094-1.548-2.55-.18.094a10.129,10.129,0,0,1-6.835,2.737c-4.192,0-8.477-2.737-8.751-8.844H95.207v-.18s.094-1.095.094-1.642c-.022-6.569-3.846-10.767-9.68-10.767Zm-7.843,9.665c.727-4.105,3.738-6.749,7.656-6.749,2.917,0,6.108,1.736,6.381,6.749Zm37.567-6.929v1.188a8.266,8.266,0,0,0-7.022-4.012h-.274c-6.2,0-10.487,4.926-10.487,12.129,0,7.3,4.105,12.215,10.213,12.215a8.517,8.517,0,0,0,7.75-4.192v3.558h3.284V2.37h-3.371V13.677Zm-7.116,18.51c-4.285,0-7.109-3.644-7.109-9.118,0-5.286,3.011-9.024,7.2-9.024,3.558,0,7.109,2.823,7.109,9.024C115.431,29.818,111.693,32.187,108.229,32.187Zm30.545-18.056v.18c-.641-1.095-2.643-3.464-7.476-3.464-6.108,0-10.119,4.653-10.119,11.761s4.192,11.941,10.393,11.941c3.371,0,5.654-1.188,7.2-3.644V34.1c0,4.465-2.823,7.022-7.843,7.022a13.607,13.607,0,0,1-6.2-1.548l-.18-.094L123.275,42.3l.18.094a17.074,17.074,0,0,0,7.57,1.822c5.38,0,11.12-2.737,11.12-10.306V11.488h-3.371Zm-6.749,17.415c-4.465,0-7.382-3.464-7.382-8.844,0-5.474,2.55-8.571,6.929-8.571,4.833,0,7.109,2.823,7.109,8.571.094,5.654-2.276,8.844-6.655,8.844Zm23.89-20.606c-6.749,0-11.394,5.013-11.394,12.129v.821a11.826,11.826,0,0,0,11.761,11.394h.454a13.3,13.3,0,0,0,8.571-3.191L165.4,32l-1.642-2.55-.18.094a10.129,10.129,0,0,1-6.835,2.737c-4.192,0-8.477-2.737-8.751-8.844h17.588v-.18s.094-1.095.094-1.642c0-6.475-3.832-10.674-9.759-10.674Zm-7.75,9.665c.727-4.105,3.738-6.749,7.656-6.749,2.917,0,6.108,1.736,6.381,6.749ZM179.9,11.394c-.454-.094-.821-.094-1.275-.18-3.191,0-5.834,2.009-7.2,5.38v-5.2h-3.371l.094,23.069v.18h3.464V24.891a13.99,13.99,0,0,1,.641-4.379c1.095-3.558,3.558-5.834,6.475-5.834a4.331,4.331,0,0,1,1.095.094H180V11.4Z" fill="#4e5565"/>
</svg>
